<svg xmlns="http://www.w3.org/2000/svg" version="1.1" xmlns:xlink="http://www.w3.org/1999/xlink" xmlns:svgjs="http://svgjs.com/svgjs" width="512" height="512"><svg height="512" viewBox="0 0 64 64" width="512" xmlns="http://www.w3.org/2000/svg"><g id="SvgjsG1002" data-name="Fill Outline"><g id="SvgjsG1001" data-name="Stroke copy"><g><path d="m61 26v-3l-11-7.586v-12.414h-8v6.897l-10-6.897-29 20v3h6v31h-6v4h58v-4h-6v-31z" fill="#d0d8da"></path><path d="m9 41v16h-6v4h29v-20z" fill="#84d2f4"></path><path d="m55 50h-4a28 28 0 0 1 -28-28v-12.793l-20 13.793v3h6v31h-6v4h58v-4h-6z" fill="#93999a"></path><path d="m30.439 41h-21.439v16h-6v4h29v-18.439q-.81-.75-1.561-1.561z" fill="#57b7eb"></path><path d="m55 41v-15h6v-3l-11-7.586v-12.414h-8v6.897l-10-6.897v38z" fill="#f9e109"></path><g><path d="m27 23a6 6 0 1 0 -10 4.463v1.537h8v-1.537a5.976 5.976 0 0 0 2-4.463z" fill="#f9e109"></path><rect fill="#84d2f4" height="4" rx="2" width="12" x="15" y="29"></rect><path d="m17 33h8a0 0 0 0 1 0 0 4 4 0 0 1 -4 4 4 4 0 0 1 -4-4 0 0 0 0 1 0 0z" fill="#fcbc04"></path><path d="m25 27a5.992 5.992 0 0 1 -4.485-9.975 5.989 5.989 0 0 0 -3.515 10.438v1.537h8v-1.537a6.14 6.14 0 0 0 .481-.487c-.159.012-.319.024-.481.024z" fill="#fcbc04"></path><path d="m17 29a2 2 0 0 0 0 4h8a2 2 0 0 0 2-2h-8a2 2 0 0 1 -2-2z" fill="#57b7eb"></path><path d="m23 34h1.859a3.977 3.977 0 0 0 .141-1h-8a3.991 3.991 0 0 0 3.014 3.863 2.993 2.993 0 0 1 2.986-2.863z" fill="#e59730"></path><path d="m21 17a5.994 5.994 0 0 0 -4 10.463v1.537h6.882a28.042 28.042 0 0 1 -.882-7v-4.651a5.971 5.971 0 0 0 -2-.349z" fill="#fcbc04"></path><path d="m19 21a5.966 5.966 0 0 1 1.515-3.975 5.989 5.989 0 0 0 -3.515 10.438v1.537h6.882c-.187-.728-.338-1.469-.467-2.219a6 6 0 0 1 -4.415-5.781z" fill="#e59730"></path><path d="m15 31a2 2 0 0 0 2 2h8a1.816 1.816 0 0 0 .235-.024 27.937 27.937 0 0 1 -1.353-3.976h-6.882a2 2 0 0 0 -2 2z" fill="#57b7eb"></path><path d="m17 29a2 2 0 0 0 0 4h8a1.816 1.816 0 0 0 .235-.024c-.275-.645-.521-1.306-.748-1.976h-5.487a2 2 0 0 1 -2-2z" fill="#4891d3"></path></g><path d="m26 49h-4v-5l-6 8h4l-1 6z" fill="#f9e109"></path><path d="m36 21h14v9h-14z" fill="#84d2f4"></path><path d="m36 21v9h14l-9-9z" fill="#57b7eb"></path><path d="m22 51-2-1 2-6-6 8h4l-1 6z" fill="#fcbc04"></path></g></g><g id="SvgjsG1000" data-name="Outline copy"><g fill="#323232"><path d="m22.316 43.052a1 1 0 0 0 -1.116.348l-6 8a1 1 0 0 0 .8 1.6h2.819l-.8 4.836a1 1 0 0 0 1.775.778l7-9a1 1 0 0 0 -.794-1.614h-3v-4a1 1 0 0 0 -.684-.948zm1.639 6.948-3.319 4.268.35-2.1a1 1 0 0 0 -.986-1.168h-2l3-4v2a1 1 0 0 0 1 1z"></path><path d="m36 29a1 1 0 0 0 0 2h3v2h-2a1 1 0 0 0 0 2h12a1 1 0 0 0 0-2h-2v-2h3a1 1 0 0 0 1-1v-9a1 1 0 0 0 -1-1h-14a1 1 0 0 0 -1 1v5a1 1 0 0 0 2 0v-4h3.586l7 7zm9 4h-4v-2h4zm4-11v5.586l-5.586-5.586z"></path><path d="m45 51v-5a1 1 0 0 0 -2 0v5a1 1 0 0 0 2 0z"></path><path d="m40.6 47.226a1 1 0 0 0 -1.4.2 5.937 5.937 0 0 0 -1.2 3.574 6 6 0 0 0 12 0 5.937 5.937 0 0 0 -1.2-3.569 1 1 0 0 0 -1.6 1.193 3.956 3.956 0 0 1 .8 2.376 4 4 0 0 1 -8 0 3.956 3.956 0 0 1 .8-2.376 1 1 0 0 0 -.2-1.398z"></path><path d="m17 28a2.991 2.991 0 0 0 -.915 5.842 4.984 4.984 0 0 0 9.83 0 2.981 2.981 0 0 0 .085-5.658v-.3a7 7 0 1 0 -11.594-2.554 1 1 0 0 0 1.885-.67 5 5 0 1 1 8.041 2.054 1 1 0 0 0 -.332.744v.542h-2v-2.586l1.707-1.707a1 1 0 0 0 -1.414-1.414l-1.293 1.293-1.293-1.293a1 1 0 0 0 -1.414 1.414l1.707 1.707v2.586zm4 8a3.006 3.006 0 0 1 -2.829-2h5.658a3.006 3.006 0 0 1 -2.829 2zm4-4h-8a1 1 0 0 1 0-2h8a1 1 0 0 1 0 2z"></path><path d="m61.567 22.177-10.567-7.288v-11.889a1 1 0 0 0 -1-1h-8a1 1 0 0 0 -1 1v4.992l-8.433-5.815a.993.993 0 0 0 -1.134 0l-29 20a1 1 0 0 0 -.433.823v3a1 1 0 0 0 1 1h5v5a1 1 0 0 0 2 0v-6a1 1 0 0 0 -1-1h-5v-1.475l28-19.31 9.433 6.505a1 1 0 0 0 1.567-.82v-5.9h6v11.414a1 1 0 0 0 .433.823l10.567 7.288v1.475h-5a1 1 0 0 0 -1 1v14h-21v-31a1 1 0 0 0 -2 0v31h-18a1 1 0 0 0 0 2h18v15a1 1 0 0 0 2 0v-15h21v5a1 1 0 0 0 2 0v-20h5a1 1 0 0 0 1-1v-3a1 1 0 0 0 -.433-.823z"></path><path d="m61 56h-5v-5a1 1 0 0 0 -2 0v6a1 1 0 0 0 1 1h5v2h-56v-2h5a1 1 0 0 0 1-1v-21a1 1 0 0 0 -2 0v20h-5a1 1 0 0 0 -1 1v4a1 1 0 0 0 1 1h58a1 1 0 0 0 1-1v-4a1 1 0 0 0 -1-1z"></path></g></g></g></svg><style>@media (prefers-color-scheme: light) { :root { filter: none; } }
</style></svg>