<svg xmlns="http://www.w3.org/2000/svg" version="1.1" xmlns:xlink="http://www.w3.org/1999/xlink" xmlns:svgjs="http://svgjs.com/svgjs" width="512" height="512"><svg id="SvgjsSvg1000" enable-background="new 0 0 512 512" viewBox="0 0 512 512" xmlns="http://www.w3.org/2000/svg"><g><path d="m.801 135-.801 322c0 30.327 24.673 55 55 55h201l40-228.5-40-228.5z" fill="#fff4f4"></path><path d="m256 55v457h201c30.376 0 55-24.624 55-55v-362z" fill="#ebebf0"></path><path d="m55 0c-29.776 0-54 24.673-54 54.963l-.199 80.037h220.657c2.961 0 5.857-.877 8.32-2.519l26.222-17.481 30-65-30-50z" fill="#49658c"></path><circle cx="125" cy="67.5" fill="#00e4ef" r="15"></circle><circle cx="65" cy="67.5" fill="#dd78ef" r="15"></circle><circle cx="185" cy="67.5" fill="#ffd45b" r="15"></circle><path d="m495.675 16.019c-10.508-10.331-24.599-16.019-39.675-16.019h-200v115l30-20h226v-40c0-14.789-5.798-28.633-16.325-38.981z" fill="#38336b"></path><path d="m131 391h-30v-195c0-8.284 6.716-15 15-15 8.284 0 15 6.716 15 15z" fill="#49658c"></path><path d="m411 391h-30v-195c0-8.284 6.716-15 15-15 8.284 0 15 6.716 15 15z" fill="#38336b"></path><path d="m146 251h-60c-8.284 0-15-6.716-15-15 0-8.284 6.716-15 15-15h60c8.284 0 15 6.716 15 15 0 8.284-6.716 15-15 15z" fill="#ffd45b"></path><path d="m426 251h-60c-8.284 0-15-6.716-15-15 0-8.284 6.716-15 15-15h60c8.284 0 15 6.716 15 15 0 8.284-6.716 15-15 15z" fill="#2ebeef"></path><path d="m241 196v195h15l10-99-10-111c-8.284 0-15 6.716-15 15z" fill="#49658c"></path><path d="m271 196c0-8.284-6.716-15-15-15v210h15z" fill="#38336b"></path><path d="m226 301c-8.284 0-15 6.716-15 15s6.716 15 15 15h30l20-16-20-14z" fill="#dd78ef"></path><path d="m301 316c0-8.284-6.716-15-15-15h-30v30h30c8.284 0 15-6.716 15-15z" fill="#a061e2"></path><path d="m211 406c0 24.813 20.187 45 45 45l20-44-20-46c-24.813 0-45 20.187-45 45z" fill="#dd78ef"></path><path d="m256 361v90c24.813 0 45-20.187 45-45s-20.187-45-45-45z" fill="#a061e2"></path><circle cx="396" cy="406" fill="#2ebeef" r="45"></circle><circle cx="116" cy="406" fill="#ffd45b" r="45"></circle></g><g></g><g></g><g></g><g></g><g></g><g></g><g></g><g></g><g></g><g></g><g></g><g></g><g></g><g></g><g></g></svg><style>@media (prefers-color-scheme: light) { :root { filter: none; } }
</style></svg>