<svg xmlns="http://www.w3.org/2000/svg" version="1.1" xmlns:xlink="http://www.w3.org/1999/xlink" xmlns:svgjs="http://svgjs.com/svgjs" width="512" height="512"><svg height="512" viewBox="0 0 512 512" width="512" xmlns="http://www.w3.org/2000/svg" xmlns:xlink="http://www.w3.org/1999/xlink"><linearGradient id="SvgjsLinearGradient1008" gradientUnits="userSpaceOnUse" x1="400" x2="400" y1="112.087" y2="456.655"><stop offset="0" stop-color="#fc5c7d"></stop><stop offset=".129" stop-color="#f35e85"></stop><stop offset=".343" stop-color="#d9659b"></stop><stop offset=".616" stop-color="#b070bf"></stop><stop offset=".934" stop-color="#777ff0"></stop><stop offset="1" stop-color="#6a82fb"></stop></linearGradient><linearGradient id="SvgjsLinearGradient1007" x1="112" x2="112" xlink:href="#New_Gradient_Swatch_2" y1="112.087" y2="456.655"></linearGradient><linearGradient id="SvgjsLinearGradient1006" x1="248" x2="248" xlink:href="#New_Gradient_Swatch_2" y1="112.087" y2="456.655"></linearGradient><linearGradient id="SvgjsLinearGradient1005" x1="144" x2="144" xlink:href="#New_Gradient_Swatch_2" y1="112.087" y2="456.655"></linearGradient><linearGradient id="SvgjsLinearGradient1004" x1="368" x2="368" xlink:href="#New_Gradient_Swatch_2" y1="112.087" y2="456.655"></linearGradient><linearGradient id="SvgjsLinearGradient1003" x1="256" x2="256" xlink:href="#New_Gradient_Swatch_2" y1="112.087" y2="456.655"></linearGradient><linearGradient id="SvgjsLinearGradient1002" x1="376" x2="376" xlink:href="#New_Gradient_Swatch_2" y1="112.087" y2="456.655"></linearGradient><linearGradient id="SvgjsLinearGradient1001" x1="136" x2="136" xlink:href="#New_Gradient_Swatch_2" y1="112.087" y2="456.655"></linearGradient><g id="SvgjsG1000"><path d="m400 168h49.223l13.333 80h-142.556v16h112v112h16v-112h24a8 8 0 0 0 7.891-9.315l-16-96a8 8 0 0 0 -7.891-6.685h-56z" fill="url(#New_Gradient_Swatch_2)"></path><path d="m40 264h24v112h16v-112h112v-16h-142.556l13.333-80h49.223v-16h-56a8 8 0 0 0 -7.891 6.685l-16 96a8 8 0 0 0 7.891 9.315z" fill="url(#New_Gradient_Swatch_2-2)"></path><path d="m240 384h16v16h-16z" fill="url(#New_Gradient_Swatch_2-3)"></path><path d="m112 352v56a8 8 0 0 0 8 8h48a8 8 0 0 0 8-8v-56a32 32 0 0 0 -64 0zm16 48v-16h32v16zm16-64a16.019 16.019 0 0 1 16 16v16h-32v-16a16.019 16.019 0 0 1 16-16z" fill="url(#New_Gradient_Swatch_2-4)"></path><path d="m336 352v56a8 8 0 0 0 8 8h48a8 8 0 0 0 8-8v-56a32 32 0 0 0 -64 0zm16 48v-16h32v16zm16-64a16.019 16.019 0 0 1 16 16v16h-32v-16a16.019 16.019 0 0 1 16-16z" fill="url(#New_Gradient_Swatch_2-5)"></path><path d="m136 288h16v16h-16z" fill="url(#New_Gradient_Swatch_2-4)"></path><path d="m360 288h16v16h-16z" fill="url(#New_Gradient_Swatch_2-5)"></path><path d="m224 200h64a8 8 0 0 0 8-8v-64a8 8 0 0 0 -8-8h-64a8 8 0 0 0 -8 8v64a8 8 0 0 0 8 8zm8-64h48v48h-48z" fill="url(#New_Gradient_Swatch_2-8)"></path><path d="m248 152h16v16h-16z" fill="url(#New_Gradient_Swatch_2-8)"></path><path d="m368 152h16v16h-16z" fill="url(#New_Gradient_Swatch_2-10)"></path><path d="m128 152h16v16h-16z" fill="url(#New_Gradient_Swatch_2-11)"></path><g fill="url(#New_Gradient_Swatch_2-8)"><path d="m146.343 133.657a8 8 0 0 0 5.657 2.343h32v16h-24v16h24v16h-32a8 8 0 0 0 -5.657 2.343l-13.656 13.657h-14.063a24 24 0 1 0 0 16h17.376a8 8 0 0 0 5.657-2.343l13.656-13.657h28.687v8a8 8 0 0 0 2.343 5.657l16 16a8 8 0 0 0 5.657 2.343h8v28.687l-13.657 13.656a8 8 0 0 0 -2.343 5.657v24h16v-20.687l13.657-13.656a8 8 0 0 0 2.343-5.657v-32h16v24h16v-24h16v32a8 8 0 0 0 2.343 5.657l13.657 13.656v20.687h16v-24a8 8 0 0 0 -2.343-5.657l-13.657-13.656v-28.687h8a8 8 0 0 0 5.657-2.343l16-16a8 8 0 0 0 2.343-5.657v-8h28.687l13.656 13.657a8 8 0 0 0 5.657 2.343h17.376a24 24 0 1 0 0-16h-14.063l-13.656-13.657a8 8 0 0 0 -5.657-2.343h-32v-16h24v-16h-24v-16h32a8 8 0 0 0 5.657-2.343l13.656-13.657h20.687v-16h-24a8 8 0 0 0 -5.657 2.343l-13.656 13.657h-28.687v-8a8 8 0 0 0 -2.343-5.657l-16-16a8 8 0 0 0 -5.657-2.343h-8v-28.687l13.657-13.656a8 8 0 0 0 2.343-5.657v-24h-16v20.687l-13.657 13.656a8 8 0 0 0 -2.343 5.657v32h-16v-24h-16v24h-16v-32a8 8 0 0 0 -2.343-5.657l-13.657-13.656v-20.687h-16v24a8 8 0 0 0 2.343 5.657l13.657 13.656v28.687h-8a8 8 0 0 0 -5.657 2.343l-16 16a8 8 0 0 0 -2.343 5.657v8h-28.687l-13.656-13.657a8 8 0 0 0 -5.657-2.343h-24v16h20.687zm-50.343 82.343a8 8 0 1 1 8-8 8.009 8.009 0 0 1 -8 8zm320-16a8 8 0 1 1 -8 8 8.009 8.009 0 0 1 8-8zm-216-84.687 11.313-11.313h89.374l11.313 11.313v89.374l-11.313 11.313h-89.374l-11.313-11.313z"></path><path d="m248 32h16v16h-16z"></path><path d="m248 272h16v16h-16z"></path><path d="m477.633 442.349c-3.907-3.935-5.633-5.864-5.633-10.349 0-19.877-10.992-40-32-40s-32 20.123-32 40c0 4.485-1.727 6.414-5.634 10.349-4.375 4.406-10.366 10.441-10.366 21.882a29.884 29.884 0 0 0 4.423 15.769h-76.423v-24a8 8 0 0 0 -8-8h-8v-88a48 48 0 0 0 -96 0v88h-8a8 8 0 0 0 -8 8v24h-76.423a29.884 29.884 0 0 0 4.423-15.769c0-11.441-5.991-17.476-10.365-21.882-3.907-3.935-5.635-5.864-5.635-10.349 0-19.877-10.992-40-32-40s-32 20.123-32 40c0 4.485-1.727 6.414-5.634 10.349-4.373 4.406-10.366 10.441-10.366 21.882a30.363 30.363 0 0 0 12.071 24.269c5.908 4.627 13.545 7.5 19.929 7.5h400c6.385 0 14.022-2.873 19.93-7.5a30.363 30.363 0 0 0 12.07-24.269c0-11.441-5.993-17.476-10.367-21.882zm-253.633-82.349a32 32 0 0 1 64 0v88h-64zm-16 104h96v16h-96zm-120 16h-32c-4.406 0-16-4.849-16-15.769 0-4.652 1.754-6.614 5.72-10.609 4.34-4.37 10.28-10.354 10.28-21.622 0-18.984 10.466-24 16-24 12.656 0 16 15.7 16 24 0 11.268 5.941 17.252 10.279 21.622 3.967 4 5.72 5.958 5.72 10.609.001 10.92-11.592 15.769-15.999 15.769zm368 0h-32c-4.406 0-16-4.849-16-15.769 0-4.651 1.753-6.614 5.72-10.609 4.338-4.37 10.28-10.354 10.28-21.622 0-18.984 10.466-24 16-24 12.656 0 16 15.7 16 24 0 11.268 5.941 17.252 10.279 21.622 3.966 4 5.72 5.957 5.72 10.609.001 10.92-11.594 15.769-15.999 15.769z"></path></g></g></svg><style>@media (prefers-color-scheme: light) { :root { filter: none; } }
</style></svg>